<svg width="650" height="650" viewBox="0 0 650 650" fill="none" xmlns="http://www.w3.org/2000/svg">
<path d="M146.055 526.039V497.708H155.193C158.266 497.708 159.662 497.948 160.899 498.506C163.732 499.783 165.528 502.497 165.528 506.248C165.528 509.639 163.732 512.792 160.74 513.989V514.069C160.74 514.069 161.139 514.468 161.697 515.465L167.523 526.039H161.777L156.151 515.465H151.203V526.039H146.055ZM151.203 510.996H155.831C158.585 510.996 160.301 509.36 160.301 506.527C160.301 503.813 159.143 502.138 155.113 502.138H151.203V510.996ZM170.208 511.674C170.208 503.574 176.513 497.229 184.853 497.229C193.193 497.229 199.497 503.574 199.497 511.674C199.497 520.014 193.193 526.518 184.853 526.518C176.513 526.518 170.208 520.014 170.208 511.674ZM175.516 511.674C175.516 517.5 179.665 521.81 184.853 521.81C190.04 521.81 194.19 517.5 194.19 511.674C194.19 506.088 190.04 501.938 184.853 501.938C179.665 501.938 175.516 506.088 175.516 511.674ZM204.741 526.039V497.708H214.876C219.984 497.708 223.615 500.342 223.615 505.011C223.615 507.644 222.338 509.919 220.183 511.076V511.156C223.296 512.073 224.772 514.946 224.772 517.819C224.772 523.486 220.223 526.039 214.996 526.039H204.741ZM209.888 509.28H214.876C217.111 509.28 218.388 507.684 218.388 505.649C218.388 503.614 217.191 502.138 214.796 502.138H209.888V509.28ZM209.888 521.61H215.395C218.028 521.61 219.505 519.894 219.505 517.5C219.505 515.146 217.989 513.43 215.395 513.43H209.888V521.61ZM228.387 511.674C228.387 503.574 234.692 497.229 243.032 497.229C251.372 497.229 257.676 503.574 257.676 511.674C257.676 520.014 251.372 526.518 243.032 526.518C234.692 526.518 228.387 520.014 228.387 511.674ZM233.694 511.674C233.694 517.5 237.844 521.81 243.032 521.81C248.219 521.81 252.369 517.5 252.369 511.674C252.369 506.088 248.219 501.938 243.032 501.938C237.844 501.938 233.694 506.088 233.694 511.674ZM268.552 526.039V502.138H259.254V497.708H282.997V502.138H273.699V526.039H268.552ZM286.729 526.039V497.708H291.877V526.039H286.729ZM297.088 511.754C297.088 503.534 303.313 497.229 311.652 497.229C318.555 497.229 322.107 501.1 322.107 501.1L319.633 504.931C319.633 504.931 316.401 501.938 311.892 501.938C305.906 501.938 302.395 506.407 302.395 511.674C302.395 517.061 306.026 521.81 311.932 521.81C316.84 521.81 320.152 518.218 320.152 518.218L322.865 521.929C322.865 521.929 318.955 526.518 311.732 526.518C303.073 526.518 297.088 520.094 297.088 511.754ZM325.452 522.648L328.245 518.777C328.245 518.777 331.317 521.77 335.308 521.77C337.462 521.77 339.418 520.653 339.418 518.338C339.418 513.27 326.05 514.148 326.05 505.449C326.05 500.741 330.12 497.229 335.547 497.229C341.133 497.229 344.006 500.262 344.006 500.262L341.772 504.452C341.772 504.452 339.059 501.978 335.507 501.978C333.113 501.978 331.238 503.375 331.238 505.37C331.238 510.397 344.565 509.16 344.565 518.218C344.565 522.728 341.133 526.518 335.228 526.518C328.923 526.518 325.452 522.648 325.452 522.648ZM359.404 526.039V497.708H364.552V521.61H376.802V526.039H359.404ZM398.33 526.039L395.935 518.777H385.999L383.605 526.039H378.298L388.274 497.708H393.661L403.637 526.039H398.33ZM391.027 502.616H390.947C390.947 502.616 390.309 505.41 389.75 507.006L387.236 514.587H394.658L392.145 507.006C391.626 505.41 391.027 502.616 391.027 502.616ZM407.257 526.039V497.708H417.392C422.5 497.708 426.131 500.342 426.131 505.011C426.131 507.644 424.854 509.919 422.699 511.076V511.156C425.811 512.073 427.288 514.946 427.288 517.819C427.288 523.486 422.739 526.039 417.512 526.039H407.257ZM412.404 509.28H417.392C419.627 509.28 420.903 507.684 420.903 505.649C420.903 503.614 419.706 502.138 417.312 502.138H412.404V509.28ZM412.404 521.61H417.911C420.544 521.61 422.021 519.894 422.021 517.5C422.021 515.146 420.504 513.43 417.911 513.43H412.404V521.61Z" fill="white"/>
<path d="M508.296 449.522H144.969V470.524H508.296V449.522Z" fill="white"/>
<path d="M146.313 414.89C146.313 424.99 153.618 431.851 164.544 431.851C175.407 431.851 182.712 424.99 182.712 414.89V385.987H174.518V414.826C174.518 420.925 170.516 424.355 164.481 424.355C158.446 424.355 154.508 420.925 154.508 414.89V385.987H146.313V414.89Z" fill="white"/>
<path d="M193.536 431.088H201.731V405.107C201.731 402.439 201.286 398.12 201.286 398.12H201.413C201.413 398.12 203.446 402.503 205.161 405.107L222.249 431.088H230.38V385.987H222.249V412.031C222.249 414.699 222.694 419.019 222.694 419.019H222.566C222.566 419.019 220.534 414.636 218.819 412.031L201.731 385.987H193.536V431.088Z" fill="white"/>
<path d="M241.799 431.088H249.994V385.987H241.799V431.088Z" fill="white"/>
<path d="M272.074 431.088H280.205L296.657 385.987H287.891L277.918 415.398C277.029 418.003 276.266 422.004 276.203 422.004H276.076C276.012 422.004 275.25 418.003 274.361 415.398L264.451 385.987H255.621L272.074 431.088Z" fill="white"/>
<path d="M302.283 431.088H330.296V424.037H310.477V411.904H325.659V404.853H310.477V393.038H329.28V385.987H302.283V431.088Z" fill="white"/>
<path d="M338.821 431.088H347.015V414.255H354.892L363.849 431.088H372.996L363.722 414.255C362.833 412.667 362.197 412.031 362.197 412.031V411.904C366.962 409.999 369.82 404.98 369.82 399.581C369.82 393.61 366.962 389.29 362.451 387.257C360.482 386.368 358.259 385.987 353.368 385.987H338.821V431.088ZM347.015 407.14V393.038H353.241C359.656 393.038 361.499 395.706 361.499 400.025C361.499 404.536 358.767 407.14 354.384 407.14H347.015Z" fill="white"/>
<path d="M377.202 425.689C377.202 425.689 382.728 431.851 392.765 431.851C402.166 431.851 407.629 425.816 407.629 418.638C407.629 404.218 386.413 406.187 386.413 398.183C386.413 395.007 389.398 392.784 393.21 392.784C398.863 392.784 403.183 396.722 403.183 396.722L406.74 390.052C406.74 390.052 402.166 385.225 393.273 385.225C384.634 385.225 378.155 390.815 378.155 398.31C378.155 412.158 399.435 410.761 399.435 418.828C399.435 422.513 396.322 424.291 392.892 424.291C386.54 424.291 381.648 419.527 381.648 419.527L377.202 425.689Z" fill="white"/>
<path d="M415.806 431.088H424V385.987H415.806V431.088Z" fill="white"/>
<path d="M444.746 431.088H452.941V393.038H467.742V385.987H429.945V393.038H444.746V431.088Z" fill="white"/>
<path d="M484.946 431.088H493.141V412.222L508.132 385.987H498.858L491.87 399.263C490.409 402.058 489.139 405.298 489.139 405.298H489.012C488.948 405.361 487.741 402.058 486.28 399.263L479.229 385.987H469.955L484.946 412.222V431.088Z" fill="white"/>
<path d="M285.684 194.426C244.732 194.426 211.537 227.637 211.537 268.609V269.579C211.537 313.09 246.746 348.316 290.235 348.316C316.343 348.316 339.393 335.628 353.715 316.075L323.206 293.461C317.014 305.104 304.781 313.09 290.682 313.09C273.376 313.09 258.905 301.149 254.951 285.103H357.892C357.967 284.954 357.967 284.879 358.041 284.73C358.191 283.983 358.414 283.237 358.489 282.491C359.309 278.013 359.757 273.311 359.757 268.609C359.832 227.637 326.637 194.426 285.684 194.426ZM258.457 251.743C261.963 239.354 273.302 230.249 286.803 230.249C300.305 230.249 311.643 239.354 315.149 251.743H258.457Z" stroke="white" stroke-width="3" stroke-linejoin="round"/>
<path d="M196.639 194.426H146.336V348.316H196.639V194.426Z" stroke="white" stroke-width="3" stroke-linejoin="round"/>
<path d="M201.654 154.055C201.654 170.676 188.18 184.15 171.559 184.15C154.938 184.15 141.464 170.676 141.464 154.055C141.464 137.434 154.938 123.96 171.559 123.96C188.18 123.96 201.654 137.434 201.654 154.055Z" stroke="white" stroke-width="3" stroke-linejoin="round"/>
</svg>
