<svg width="651" height="650" viewBox="0 0 651 650" fill="none" xmlns="http://www.w3.org/2000/svg">
<path d="M146.338 526.039V497.708H155.475C158.548 497.708 159.945 497.948 161.182 498.506C164.015 499.783 165.81 502.497 165.81 506.248C165.81 509.639 164.015 512.792 161.022 513.989V514.069C161.022 514.069 161.421 514.468 161.98 515.465L167.805 526.039H162.059L156.433 515.465H151.485V526.039H146.338ZM151.485 510.996H156.114C158.867 510.996 160.583 509.36 160.583 506.527C160.583 503.813 159.426 502.138 155.396 502.138H151.485V510.996ZM170.491 511.674C170.491 503.574 176.795 497.229 185.135 497.229C193.475 497.229 199.78 503.574 199.78 511.674C199.78 520.014 193.475 526.518 185.135 526.518C176.795 526.518 170.491 520.014 170.491 511.674ZM175.798 511.674C175.798 517.5 179.948 521.81 185.135 521.81C190.323 521.81 194.473 517.5 194.473 511.674C194.473 506.088 190.323 501.938 185.135 501.938C179.948 501.938 175.798 506.088 175.798 511.674ZM205.023 526.039V497.708H215.159C220.266 497.708 223.897 500.342 223.897 505.011C223.897 507.644 222.62 509.919 220.466 511.076V511.156C223.578 512.073 225.054 514.946 225.054 517.819C225.054 523.486 220.506 526.039 215.278 526.039H205.023ZM210.171 509.28H215.159C217.393 509.28 218.67 507.684 218.67 505.649C218.67 503.614 217.473 502.138 215.079 502.138H210.171V509.28ZM210.171 521.61H215.677C218.311 521.61 219.787 519.894 219.787 517.5C219.787 515.146 218.271 513.43 215.677 513.43H210.171V521.61ZM228.67 511.674C228.67 503.574 234.974 497.229 243.314 497.229C251.654 497.229 257.959 503.574 257.959 511.674C257.959 520.014 251.654 526.518 243.314 526.518C234.974 526.518 228.67 520.014 228.67 511.674ZM233.977 511.674C233.977 517.5 238.127 521.81 243.314 521.81C248.502 521.81 252.651 517.5 252.651 511.674C252.651 506.088 248.502 501.938 243.314 501.938C238.127 501.938 233.977 506.088 233.977 511.674ZM268.834 526.039V502.138H259.537V497.708H283.279V502.138H273.982V526.039H268.834ZM287.011 526.039V497.708H292.159V526.039H287.011ZM297.37 511.754C297.37 503.534 303.595 497.229 311.935 497.229C318.838 497.229 322.389 501.1 322.389 501.1L319.915 504.931C319.915 504.931 316.683 501.938 312.174 501.938C306.189 501.938 302.677 506.407 302.677 511.674C302.677 517.061 306.308 521.81 312.214 521.81C317.122 521.81 320.434 518.218 320.434 518.218L323.147 521.929C323.147 521.929 319.237 526.518 312.014 526.518C303.355 526.518 297.37 520.094 297.37 511.754ZM325.734 522.648L328.527 518.777C328.527 518.777 331.6 521.77 335.59 521.77C337.745 521.77 339.7 520.653 339.7 518.338C339.7 513.27 326.332 514.148 326.332 505.449C326.332 500.741 330.403 497.229 335.829 497.229C341.416 497.229 344.289 500.262 344.289 500.262L342.054 504.452C342.054 504.452 339.341 501.978 335.79 501.978C333.395 501.978 331.52 503.375 331.52 505.37C331.52 510.397 344.847 509.16 344.847 518.218C344.847 522.728 341.416 526.518 335.51 526.518C329.205 526.518 325.734 522.648 325.734 522.648ZM359.686 526.039V497.708H364.834V521.61H377.084V526.039H359.686ZM398.612 526.039L396.218 518.777H386.282L383.888 526.039H378.581L388.556 497.708H393.943L403.919 526.039H398.612ZM391.31 502.616H391.23C391.23 502.616 390.591 505.41 390.033 507.006L387.519 514.587H394.941L392.427 507.006C391.908 505.41 391.31 502.616 391.31 502.616ZM407.539 526.039V497.708H417.674C422.782 497.708 426.413 500.342 426.413 505.011C426.413 507.644 425.136 509.919 422.981 511.076V511.156C426.094 512.073 427.57 514.946 427.57 517.819C427.57 523.486 423.021 526.039 417.794 526.039H407.539ZM412.686 509.28H417.674C419.909 509.28 421.186 507.684 421.186 505.649C421.186 503.614 419.989 502.138 417.595 502.138H412.686V509.28ZM412.686 521.61H418.193C420.827 521.61 422.303 519.894 422.303 517.5C422.303 515.146 420.787 513.43 418.193 513.43H412.686V521.61Z" fill="white"/>
<path d="M508.579 449.522H145.251V470.524H508.579V449.522Z" fill="white"/>
<path d="M146.596 414.89C146.596 424.99 153.901 431.851 164.827 431.851C175.689 431.851 182.994 424.99 182.994 414.89V385.987H174.8V414.826C174.8 420.925 170.798 424.355 164.763 424.355C158.729 424.355 154.79 420.925 154.79 414.89V385.987H146.596V414.89Z" fill="white"/>
<path d="M193.819 431.088H202.013V405.107C202.013 402.439 201.569 398.12 201.569 398.12H201.696C201.696 398.12 203.728 402.503 205.443 405.107L222.531 431.088H230.662V385.987H222.531V412.031C222.531 414.699 222.976 419.019 222.976 419.019H222.849C222.849 419.019 220.816 414.636 219.101 412.031L202.013 385.987H193.819V431.088Z" fill="white"/>
<path d="M242.081 431.088H250.276V385.987H242.081V431.088Z" fill="white"/>
<path d="M272.356 431.088H280.487L296.94 385.987H288.174L278.2 415.398C277.311 418.003 276.549 422.004 276.485 422.004H276.358C276.295 422.004 275.532 418.003 274.643 415.398L264.733 385.987H255.904L272.356 431.088Z" fill="white"/>
<path d="M302.565 431.088H330.579V424.037H310.759V411.904H325.942V404.853H310.759V393.038H329.562V385.987H302.565V431.088Z" fill="white"/>
<path d="M339.103 431.088H347.298V414.255H355.175L364.131 431.088H373.279L364.004 414.255C363.115 412.667 362.48 412.031 362.48 412.031V411.904C367.244 409.999 370.103 404.98 370.103 399.581C370.103 393.61 367.244 389.29 362.734 387.257C360.765 386.368 358.541 385.987 353.65 385.987H339.103V431.088ZM347.298 407.14V393.038H353.523C359.939 393.038 361.781 395.706 361.781 400.025C361.781 404.536 359.05 407.14 354.666 407.14H347.298Z" fill="white"/>
<path d="M377.484 425.689C377.484 425.689 383.011 431.851 393.047 431.851C402.449 431.851 407.912 425.816 407.912 418.638C407.912 404.218 386.695 406.187 386.695 398.183C386.695 395.007 389.681 392.784 393.492 392.784C399.146 392.784 403.465 396.722 403.465 396.722L407.022 390.052C407.022 390.052 402.449 385.225 393.555 385.225C384.916 385.225 378.437 390.815 378.437 398.31C378.437 412.158 399.717 410.761 399.717 418.828C399.717 422.513 396.605 424.291 393.174 424.291C386.822 424.291 381.931 419.527 381.931 419.527L377.484 425.689Z" fill="white"/>
<path d="M416.088 431.088H424.282V385.987H416.088V431.088Z" fill="white"/>
<path d="M445.029 431.088H453.223V393.038H468.024V385.987H430.228V393.038H445.029V431.088Z" fill="white"/>
<path d="M485.228 431.088H493.423V412.222L508.414 385.987H499.14L492.152 399.263C490.691 402.058 489.421 405.298 489.421 405.298H489.294C489.23 405.361 488.023 402.058 486.562 399.263L479.511 385.987H470.237L485.228 412.222V431.088Z" fill="white"/>
<path d="M285.967 194.426C245.014 194.426 211.82 227.637 211.82 268.609V269.579C211.82 313.09 247.028 348.316 290.517 348.316C316.626 348.316 339.675 335.628 353.998 316.075L323.488 293.461C317.297 305.104 305.063 313.09 290.965 313.09C273.659 313.09 259.187 301.149 255.234 285.103H358.175C358.249 284.954 358.249 284.879 358.324 284.73C358.473 283.983 358.697 283.237 358.772 282.491C359.592 278.013 360.04 273.311 360.04 268.609C360.114 227.637 326.92 194.426 285.967 194.426ZM258.74 251.743C262.246 239.354 273.584 230.249 287.086 230.249C300.588 230.249 311.926 239.354 315.432 251.743H258.74Z" fill="white"/>
<path d="M196.922 194.426H146.619V348.316H196.922V194.426Z" fill="white"/>
<path d="M201.936 154.055C201.936 170.676 188.462 184.15 171.841 184.15C155.22 184.15 141.746 170.676 141.746 154.055C141.746 137.434 155.22 123.96 171.841 123.96C188.462 123.96 201.936 137.434 201.936 154.055Z" fill="white"/>
</svg>
